<svg enable-background="new 0 0 512 512" viewBox="0 0 512 512" xmlns="http://www.w3.org/2000/svg" xmlns:xlink="http://www.w3.org/1999/xlink"><linearGradient id="a" gradientTransform="matrix(1 0 0 -1 0 512)" gradientUnits="userSpaceOnUse" x1="256.0438" x2="256.0438" y1="139.4" y2="372.3"><stop offset="0" stop-color="#82e8fe"/><stop offset="1" stop-color="#68aafe"/></linearGradient><linearGradient id="b"><stop offset="0" stop-color="#6913cc"/><stop offset="1" stop-color="#2475fc"/></linearGradient><linearGradient id="c" gradientTransform="matrix(1 0 0 -1 0 389.9609)" gradientUnits="userSpaceOnUse" x1="124.875" x2="387.125" xlink:href="#b" y1="258.6359" y2="-3.6141"/><linearGradient id="d" gradientTransform="matrix(1 0 0 -1 0 512)" gradientUnits="userSpaceOnUse" x1="94.3777" x2="417.6725" xlink:href="#b" y1="417.6226" y2="94.3276"/><linearGradient id="e" gradientTransform="matrix(1 0 0 -1 0 512)" gradientUnits="userSpaceOnUse" x1="139.5" x2="374.25" xlink:href="#b" y1="293.2" y2="58.45"/><linearGradient id="f" gradientTransform="matrix(1 0 0 -1 0 512)" gradientUnits="userSpaceOnUse" x1="255.9999" x2="301.5315" xlink:href="#b" y1="128.95" y2="128.95"/><linearGradient id="g" gradientTransform="matrix(1 0 0 -1 0 512)" gradientUnits="userSpaceOnUse" x1="256" x2="373.2" xlink:href="#b" y1="280.1" y2="280.1"/><path d="m506.6 270.5c-3.6 4.5-7.5 9.1-11.6 13.8-3.4 3.9-6.9 7.8-10.6 11.7-2.4 2.6-4.9 5.2-7.4 7.7-.2.2-.4.4-.6.6-3.2 3.2-6.4 6.4-9.8 9.6-17.5 16.7-37.3 32.9-58.8 46.9-11.9 7.8-31.7 11.8-51.5 11.8h-200.5c-19.8 0-39.6-4-51.5-11.8-21.5-14-41.4-30.2-58.9-46.9-3.4-3.2-6.6-6.4-9.8-9.6-.2-.2-.4-.4-.6-.7-2.6-2.6-5-5.1-7.4-7.7-3.7-3.9-7.2-7.8-10.6-11.7-4.1-4.7-7.9-9.3-11.5-13.8-7.2-9-7.2-19.6 0-28.5 3.6-4.5 7.5-9.1 11.5-13.8 3.4-3.9 6.9-7.8 10.6-11.7 2.4-2.6 4.9-5.1 7.4-7.7.2-.2.4-.4.6-.7 3.2-3.2 6.4-6.4 9.8-9.6 17.5-16.7 37.3-32.9 58.9-46.9 11.9-7.8 31.7-11.8 51.5-11.8h200.4c19.8 0 39.6 4 51.5 11.8 21.5 13.9 41.4 30.2 58.8 46.9 3.4 3.2 6.7 6.4 9.8 9.6.2.2.4.4.6.6 2.6 2.6 5 5.1 7.4 7.7 3.7 3.9 7.2 7.8 10.6 11.7 4.1 4.7 8 9.3 11.6 13.8 7.3 9.2 7.3 19.7.1 28.7z" fill="url(#a)"/><path d="m512 256.2c0 4.9-1.8 9.8-5.4 14.3s-7.5 9.1-11.6 13.8c-3.4 3.9-6.9 7.8-10.6 11.7-2.4 2.6-4.9 5.2-7.4 7.7-.2.2-.4.4-.6.6-3.2 3.2-6.4 6.4-9.8 9.6-17.5 16.7-37.3 32.9-58.8 46.9-11.9 7.8-31.7 11.8-51.5 11.8h-200.5c-19.8 0-39.6-4-51.5-11.8-21.5-14-41.4-30.2-58.9-46.9-3.4-3.2-6.6-6.4-9.8-9.6-.2-.2-.4-.4-.6-.7-2.6-2.6-5-5.1-7.4-7.7-3.7-3.9-7.2-7.8-10.6-11.7-4.1-4.7-7.9-9.3-11.5-13.8-3.7-4.4-5.5-9.3-5.5-14.2z" fill="url(#c)" opacity=".4"/><path d="m443.6 151.4v209.2c0 19.3-6.5 38.5-19 50.1-.9.8-1.9 1.7-2.8 2.5-7 6.4-14.3 12.6-21.9 18.6-37.7 30.1-81.6 56-120.9 75-6.8 3.3-14.1 5-21.5 5.2-.5 0-1 0-1.5 0s-1 0-1.5 0c-7.4-.2-14.7-1.9-21.5-5.2-37.8-18.3-79.8-42.8-116.5-71.5-7.4-5.8-14.7-11.8-21.6-17.9-2.5-2.3-5-4.5-7.5-6.8-12.6-11.6-19.1-30.9-19-50.1v-209c0-19.3 6.5-38.5 19-50.1 42.2-39.2 97.3-72.8 145.6-96.1 7.3-3.5 15.1-5.2 23-5.2s15.7 1.7 23 5.2c48.2 23.3 103.4 56.9 145.6 96.1 12.5 11.5 19 30.7 19 50z" fill="url(#d)"/><path d="m421.8 406c-7 6.4-14.3 12.6-21.9 18.6-37.8 30.1-81.6 55.9-121 75-6.8 3.3-14.1 5-21.5 5.2-1 0-2 0-2.9 0-7.4-.2-14.7-1.9-21.5-5.2-37.8-18.3-79.8-42.8-116.5-71.5-7.4-5.8-14.7-11.8-21.6-17.9 18-72.4 46.4-193.2 46.4-193.2l114.7-86.2 113.7 82.2z" fill="url(#e)" opacity=".35"/><path d="m443.6 151.4v209.2c0 19.3-6.5 38.5-19 50.1-.9.8-1.9 1.7-2.8 2.5-7 6.4-14.3 12.6-21.9 18.6-37.7 30.1-81.6 56-120.9 75-6.8 3.3-14.1 5-21.5 5.2-.5 0-1 0-1.5 0v-512c7.9 0 15.7 1.7 23 5.2 48.2 23.3 103.4 56.9 145.6 96.1 12.5 11.6 19 30.8 19 50.1z" opacity=".2"/><path d="m301.5 361.9-45.4 45.6-.2-.2-45.3-45.4c6.3-.9 12.7-1.7 19.4-2.2 8.3-.7 16.9-1.1 25.7-1.1h.7c8.8 0 17.4.4 25.6 1.1 6.8.5 13.3 1.2 19.5 2.2z" fill="#fff"/><path d="m256 158.6v138.9c-20.1 0-39.1 1.6-56.8 4.6-16.7-15.6-26.2-37.6-26.2-60.5 0-45.8 37.3-83 83-83z" fill="none"/><path d="m256 124.3c-64.7 0-117.2 52.5-117.2 117.2 0 26 8.5 50 22.8 69.5 4.7 6.4 10 12.2 15.8 17.5l10.8 10.8c12.7-3.1 26.8-5.3 41.8-6.5 8.4-.7 17-1.1 26-1.1s17.7.4 26.1 1.1c15 1.2 29 3.5 41.8 6.6l13-13.1c4.9-4.7 9.4-9.8 13.5-15.3 14.3-19.4 22.8-43.5 22.8-69.5 0-64.7-52.5-117.2-117.2-117.2zm57.2 177.2-.5.5c-17.7-3-36.7-4.6-56.8-4.6s-39.1 1.6-56.8 4.6c-16.7-15.6-26.2-37.6-26.2-60.5 0-45.7 37.2-83 83-83 45.7 0 83 37.2 83 83 .1 22.9-9.1 44.2-25.7 60z" fill="#fff"/><path d="m282.1 359.6c6.7.5 13.1 1.3 19.4 2.3l-45.4 45.6-.2-.2v-48.7h.5c8.9 0 17.5.4 25.7 1z" fill="url(#f)" opacity=".3"/><path d="m373.2 241.6c0 26-8.5 50-22.8 69.5-4 5.5-8.5 10.6-13.5 15.3l-13 13.1c-12.7-3.1-26.8-5.3-41.8-6.6-8.4-.7-17.2-1.1-26.1-1.1v-34.3c20.1 0 39.1 1.6 56.8 4.6l.5-.5c16.6-15.8 25.7-37.1 25.7-60 0-45.7-37.2-83-83-83v-34.3c64.7 0 117.2 52.5 117.2 117.3z" fill="url(#g)" opacity=".3"/></svg>