<svg enable-background="new 0 0 1440 1440" viewBox="0 0 1440 1440" xmlns="http://www.w3.org/2000/svg"><g clip-rule="evenodd" fill-rule="evenodd"><path d="m10 601c65.8-392.1 436.9-656.7 829-591s656.7 436.9 590.9 829c-65.7 392.1-436.9 656.7-829 590.9-392-65.7-656.6-436.8-590.9-828.9z" fill="#e4e8ec"/><path d="m814.1 83.6c351.5 52.6 593.8 380.4 541.2 732.2s-380.2 594.3-731.7 541.7c-351.4-52.6-593.7-380.4-541.1-732.2s380.1-594.3 731.6-541.7z" fill="#d3dae0"/><path d="m789.2 157.1c310.9 39.4 530.9 323.9 491.5 635.4s-323.4 532-634.3 492.5c-310.9-39.4-530.9-323.9-491.5-635.4s323.5-531.9 634.3-492.5z" fill="#c3ccd4"/><path d="m764.3 230.7c270.2 26.3 468 267.4 441.7 538.6s-266.7 469.7-536.9 443.4-468-267.4-441.7-538.6 266.7-469.7 536.9-443.4z" fill="#2962ff"/><path d="m739.4 304.2c229.6 13.1 405.1 210.9 392 441.8-13.1 230.8-210 407.3-439.6 394.2s-405.1-210.9-392-441.8c13.2-230.9 210-407.3 439.6-394.2z" fill="#1d56ef"/><path d="m714.5 377.8c189 0 342.2 154.4 342.2 345 0 190.5-153.2 345-342.2 345s-342.2-154.4-342.2-345 153.2-345 342.2-345z" fill="#144de4"/></g><path d="m596.3 524.1h244.3v377.4h-244.3z" fill="#fff"/><path d="m717.8 517.2h128.8v377.7h-128.8z" fill="#eaeeef"/><path d="m828.7 472.1h-221.7c-24.5 0-44.4 19.9-44.4 44.4v399c0 24.4 19.9 44.4 44.4 44.4h221.7c24.3 0 44.2-20 44.2-44.4v-399c.1-24.5-19.9-44.4-44.2-44.4zm7.7 411.8h-237.1v-356.5h237.1z" fill="#1245b5"/><path d="m873 516.5v399c0 24.4-19.9 44.4-44.2 44.4h-111v-76h118.6v-356.5h-118.6v-55.3h110.9c24.3 0 44.3 19.9 44.3 44.4z" fill="#03358c"/><path clip-rule="evenodd" d="m776 674-49.5-48.4h-8.7v64.5l-40-39.1-12.2 11.9 48.6 47.5-48.5 47.6 12.2 11.9 40-39v64.5h8.7l49.4-48.4-37.4-36.5zm-42.4-14.5 17 17-17 17zm17 84.9-17 17v-34z" fill="#1347d6" fill-rule="evenodd"/><circle clip-rule="evenodd" cx="718" cy="921.1" fill="#eaeeef" fill-rule="evenodd" r="21"/></svg>